# xmcd
#
# Track frame offsets: 
#        150
#        8820
#        21904
#        32072
#        41898
#        52755
#        64406
#        74999
#        84977
#        98377
#        110648
#        119610
#        133254
#        143498
#        154613
#        165165
#        178693
#        190881
#        204001
#        212769
#
# Disc length: 2953 seconds
#
# Revision: 0
# Processed by: cddbd v1.5.2PL0 Copyright (c) Steve Scherf et al.
# Submitted via: ExactAudioCopyFreeDBPlugin 1.0
#
DISCID=130b8714
DTITLE=Coasters - The Essential Recordings [CD2]
DYEAR=2014
DGENRE=Doo-Wop
TTITLE0=Yakety Yak
TTITLE1=Zing Went The Strings Of My Heart
TTITLE2=The Shadow Knows
TTITLE3=Sorry But I'm Gonna Have To Pass
TTITLE4=That Is Rock 'n' Roll
TTITLE5=Hey Sexy
TTITLE6=Charlie Brown
TTITLE7=Three Cool Cats
TTITLE8=Along Came Jones
TTITLE9=Poison Ivy
TTITLE10=I'm A Hog For You
TTITLE11=Run Red Run
TTITLE12=Besame Mucho (Part 1)
TTITLE13=Wake Me, Shake Me
TTITLE14=Stewball
TTITLE15=Shoppin' For Clothes
TTITLE16=Wait A Minute
TTITLE17=Little Egypt (Ying Yang)
TTITLE18=Girls Girls Girls (Part 2)
TTITLE19=(Ain't That) Just Like Me
EXTD=
EXTT0=
EXTT1=
EXTT2=
EXTT3=
EXTT4=
EXTT5=
EXTT6=
EXTT7=
EXTT8=
EXTT9=
EXTT10=
EXTT11=
EXTT12=
EXTT13=
EXTT14=
EXTT15=
EXTT16=
EXTT17=
EXTT18=
EXTT19=
PLAYORDER=
